<svg width="190" height="216" viewBox="0 0 190 216" fill="none" xmlns="http://www.w3.org/2000/svg">
<path d="M115.338 0.478516V5.94727C106.451 5.94727 99.8431 6.80176 95.5137 8.51074C91.2982 10.1058 88.5638 13.182 87.3105 17.7393C86.0573 22.2965 85.4307 28.8477 85.4307 37.3926V139.932C85.4307 148.59 84.5762 157.363 82.8672 166.25C81.1582 175.137 78.3099 183.283 74.3223 190.688C70.3346 197.98 64.8659 203.905 57.916 208.462C50.9661 212.905 42.2503 215.127 31.7686 215.127C27.0973 215.127 22.3691 214.272 17.584 212.563C12.7988 210.968 8.8112 208.405 5.62109 204.873C2.43099 201.341 0.835938 196.784 0.835938 191.201C0.835938 180.492 6.01986 175.137 16.3877 175.137C20.7171 175.137 24.1351 176.561 26.6416 179.409C29.1481 182.257 31.1989 185.618 32.7939 189.492C34.5029 193.252 36.1549 196.556 37.75 199.404C39.459 202.253 41.6807 203.677 44.415 203.677C48.0609 203.677 50.6813 202.31 52.2764 199.575C53.8714 196.727 54.8398 193.48 55.1816 189.834C55.5234 186.188 55.6943 183.112 55.6943 180.605V37.3926C55.6943 28.9616 55.0677 22.4674 53.8145 17.9102C52.5612 13.3529 49.8268 10.2197 45.6113 8.51074C41.3958 6.80176 34.7308 5.94727 25.6162 5.94727V0.478516H115.338ZM189.337 196.499C189.337 201.626 187.571 205.955 184.039 209.487C180.507 213.019 176.178 214.785 171.051 214.785C166.266 214.785 162.107 213.019 158.575 209.487C155.157 205.955 153.448 201.626 153.448 196.499C153.448 191.6 155.157 187.441 158.575 184.023C162.107 180.605 166.266 178.896 171.051 178.896C176.178 178.896 180.507 180.605 184.039 184.023C187.571 187.441 189.337 191.6 189.337 196.499Z" fill="white"/>
</svg>
